# xmcd CD database file
#
# Track frame offsets:
#	150
#	4453
#	25186
#	44202
#	57793
#	81633
#	109605
#	129103
#	152627
#	159182
#	180527
#	207081
#	232531
#
# Disc length: 3177 seconds
#
# Revision: 0
# Processed by: cddbd v1.5.1PL0 Copyright (c) Steve Scherf et al.
# Submitted via: CDex 1.51
#
DISCID=990c670d
DTITLE=Babyra Soul - Babyra Soul
DYEAR=1998
DGENRE=Jazz
TTITLE0=intro (instrumental)
TTITLE1=uomini
TTITLE2=follia
TTITLE3=mantra
TTITLE4=a chi grida
TTITLE5=mama terra
TTITLE6=arab joe  (instrumental)
TTITLE7=respirando
TTITLE8=jazz it (instrumental)
TTITLE9=spinta dalla voglia di
TTITLE10=resto così
TTITLE11=guardo dentro te
TTITLE12=outro (instrumental)
EXTD=YEAR: 1998
EXTT0=
EXTT1=
EXTT2=
EXTT3=
EXTT4=
EXTT5=
EXTT6=
EXTT7=
EXTT8=
EXTT9=
EXTT10=
EXTT11=
EXTT12=
PLAYORDER=
